[[ S:PROCESANDO VOD:1400539584 ]]
[[ S:CREANDO DIRECTORIO:1400539584 ]]
[[ E:CREANDO DIRECTORIO:1400539584 ]]
[[ S:DESCARGANDO SENAL DE AKAMAI:1400539584 ]]
HLS Downloader 1.2.0 - Akamai Technologies, Inc. 2013
Loading master playlist (http://tvsawpdvr-lh.akamaihd.net/i/stch05wp_1@119663/master.m3u8?b=300-400&start=1400468400&end=1400468430)
Ignoring playlist (http://tvsawpdvr-lh.akamaihd.net/i/stch05wp_1@119663/index_162_a-p.m3u8?sd=&start=1400468400&end=1400468430&b=300-400&rebase=on)
Ignoring playlist (http://tvsawpdvr-lh.akamaihd.net/i/stch05wp_1@119663/index_162_a-b.m3u8?sd=&start=1400468400&end=1400468430&b=300-400&rebase=on)
Done. 1 playlists found (2 ignored)
Processing playlist (http://tvsawpdvr-lh.akamaihd.net/i/stch05wp_1@119663/index_162_av-p.m3u8?sd=&start=1400468400&end=1400468430&b=300-400&rebase=on)
Loading playlist (BANDWIDTH=354000)
Playlist loaded! (354000, 140046841, 3)
[x] Segment #140046841 (354000) downloaded OK
[x] Segment #140046842 (354000) downloaded OK
[x] Segment #140046843 (354000) downloaded OK
Playlist complete (http://tvsawpdvr-lh.akamaihd.net/i/stch05wp_1@119663/index_162_av-p.m3u8?sd=&start=1400468400&end=1400468430&b=300-400&rebase=on)
Converting file into MP4 format
MP4 file created: /c00nt/vcms/Akamai/outputs/0be09ae71b_354000.mp4
Every playlist was processed
Process complete
[[ E:DESCARGANDO SENAL DE AKAMAI:1400539589 ]]
[[ S:MOVIENDO ARCHIVO A DIRECTORIO PARA PROCESAR:1400539589 ]]
[[ E:MOVIENDO ARCHIVO A DIRECTORIO PARA PROCESAR:1400539589 ]]
[[ S:SINCRONIZANDO AUDIO Y VIDEO:1400539589 ]]
ffmpeg version N-43464-gc5ea3a0 Copyright (c) 2000-2012 the FFmpeg developers
  built on Aug 13 2012 05:10:11 with gcc 4.6 (Debian 4.6.3-1)
  configuration: --prefix=/root/ffmpeg-static/32bit --arch=x86_32 --extra-cflags='-m32 -I/root/ffmpeg-static/32bit/include -static' --extra-ldflags='-m32 -L/r
oot/ffmpeg-static/32bit/lib -static' --extra-libs='-lxml2 -lexpat -lfreetype' --enable-static --disable-shared --disable-ffserver --disable-doc --enable-bzlib
 --enable-zlib --enable-postproc --enable-runtime-cpudetect --enable-libx264 --enable-gpl --enable-libtheora --enable-libvorbis --enable-libmp3lame --enable-g
ray --enable-libass --enable-libfreetype --enable-libopenjpeg --enable-libspeex --enable-libvo-aacenc --enable-libvo-amrwbenc --enable-version3 --enable-libvp
x
  libavutil      51. 68.100 / 51. 68.100
  libavcodec     54. 51.100 / 54. 51.100
  libavformat    54. 23.100 / 54. 23.100
  libavdevice    54.  2.100 / 54.  2.100
  libavfilter     3.  7.100 /  3.  7.100
  libswscale      2.  1.101 /  2.  1.101
  libswresample   0. 15.100 /  0. 15.100
  libpostproc    52.  0.100 / 52.  0.100
[mov,mp4,m4a,3gp,3g2,mj2 @ 0xb00f7a0] multiple edit list entries, a/v desync might occur, patch welcome
Input #0, mov,mp4,m4a,3gp,3g2,mj2, from '/c00nt/vcms/media/short/alas3/18926b9f8d0be09ae71ba1ed822b7747/0be09ae71b-235-orig.mp4':
  Metadata:
    major_brand     : isom
    minor_version   : 512
    compatible_brands: isomiso2avc1mp41
    encoder         : Lavf54.23.100
  Duration: 00:00:29.99, start: 0.000000, bitrate: 351 kb/s
    Stream #0:0(und): Video: h264 (Baseline) (avc1 / 0x31637661), yuv420p, 320x180 [SAR 1:1 DAR 16:9], 161 kb/s, 29.97 fps, 29.97 tbr, 90k tbn, 59.94 tbc
    Metadata:
      handler_name    : VideoHandler
    Stream #0:1(und): Audio: aac (mp4a / 0x6134706D), 48000 Hz, stereo, s16, 189 kb/s
    Metadata:
      handler_name    : SoundHandler
-async is forwarded to lavfi similarly to -af aresample=min_comp=0.001:min_hard_comp=0.100000:max_soft_comp=0.000042.
[libx264 @ 0xb03b740] using SAR=1/1
[libx264 @ 0xb03b740] using cpu capabilities: MMX2 SSE2Fast SSSE3 FastShuffle SSE4.2
[libx264 @ 0xb03b740] profile High, level 1.3
[libx264 @ 0xb03b740] 264 - core 124 r2197 69a0443 - H.264/MPEG-4 AVC codec - Copyleft 2003-2012 - http://www.videolan.org/x264.html - options: cabac=1 ref=3 
deblock=1:0:0 analyse=0x3:0x113 me=hex subme=7 psy=1 psy_rd=1.00:0.00 mixed_ref=1 me_range=16 chroma_me=1 trellis=1 8x8dct=1 cqm=0 deadzone=21,11 fast_pskip=1
 chroma_qp_offset=-2 threads=1 sliced_threads=0 nr=0 decimate=1 interlaced=0 bluray_compat=0 constrained_intra=0 bframes=1 b_pyramid=0 b_adapt=1 b_bias=0 dire
ct=1 weightb=1 open_gop=0 weightp=2 keyint=2 keyint_min=1 scenecut=40 intra_refresh=0 rc_lookahead=2 rc=crf mbtree=1 crf=23.0 qcomp=0.60 qpmin=0 qpmax=69 qpst
ep=4 ip_ratio=1.40 aq=1:1.00
Output #0, mp4, to '/c00nt/vcms/media/short/alas3/18926b9f8d0be09ae71ba1ed822b7747/0be09ae71b-235-edit.mp4':
  Metadata:
    major_brand     : isom
    minor_version   : 512
    compatible_brands: isomiso2avc1mp41
    encoder         : Lavf54.23.100
    Stream #0:0(und): Video: h264 ([33][0][0][0] / 0x0021), yuv420p, 320x180 [SAR 1:1 DAR 16:9], q=-1--1, 30k tbn, 29.97 tbc
    Metadata:
      handler_name    : VideoHandler
    Stream #0:1(und): Audio: aac ([64][0][0][0] / 0x0040), 48000 Hz, stereo, s16, 128 kb/s
    Metadata:
      handler_name    : SoundHandler
Stream mapping:
  Stream #0:0 -> #0:0 (h264 -> libx264)
  Stream #0:1 -> #0:1 (aac -> libvo_aacenc)
Press [q] to stop, [?] for help
frame=  297 fps= 84 q=29.0 size=     687kB time=00:00:08.40 bitrate= 669.2kbits/s dup=44 drop=0    
frame=  544 fps= 83 q=26.0 size=    1453kB time=00:00:18.01 bitrate= 650.2kbits/s dup=44 drop=0    
frame=  786 fps= 82 q=26.0 size=    2340kB time=00:00:26.09 bitrate= 734.6kbits/s dup=44 drop=0    
frame=  899 fps= 82 q=26.0 Lsize=    2861kB time=00:00:29.96 bitrate= 782.2kbits/s dup=44 drop=0    
video:2363kB audio:470kB subtitle:0 global headers:0kB muxing overhead 0.996675%
[libx264 @ 0xb03b740] frame I:453   Avg QP:23.05  size:  4862
[libx264 @ 0xb03b740] frame P:446   Avg QP:29.98  size:   486
[libx264 @ 0xb03b740] mb I  I16..4: 32.1% 30.4% 37.5%
[libx264 @ 0xb03b740] mb P  I16..4:  1.7%  1.7%  1.6%  P16..4: 22.0%  3.6%  0.9%  0.0%  0.0%    skip:68.5%
[libx264 @ 0xb03b740] 8x8 transform intra:30.6% inter:36.8%
[libx264 @ 0xb03b740] coded y,uvDC,uvAC intra: 58.9% 62.2% 38.8% inter: 5.7% 5.3% 1.7%
[libx264 @ 0xb03b740] i16 v,h,dc,p: 46% 29% 14% 10%
[libx264 @ 0xb03b740] i8 v,h,dc,ddl,ddr,vr,hd,vl,hu: 20% 27% 14%  5%  5%  6%  8%  6%  8%
[libx264 @ 0xb03b740] i4 v,h,dc,ddl,ddr,vr,hd,vl,hu: 24% 27% 13%  5%  6%  6%  8%  5%  6%
[libx264 @ 0xb03b740] i8c dc,h,v,p: 48% 27% 18%  7%
[libx264 @ 0xb03b740] Weighted P-Frames: Y:0.4% UV:0.4%
[libx264 @ 0xb03b740] kb/s:645.17
[[ E:SINCRONIZANDO AUDIO Y VIDEO:1400539600 ]]
[[ S:REALIZANDO FIX A METADATA DEL VIDEO:1400539600 ]]
moov atom ajustado correctamente en: /c00nt/vcms/media/short/alas3/18926b9f8d0be09ae71ba1ed822b7747/0be09ae71b-235-edit.mp4.fixed.mp4
[[ E:REALIZANDO FIX A METADATA DEL VIDEO:1400539600 ]]
[[ S:ELIMINANDO INFORMACION TEMPORAL:1400539600 ]]
[[ E:ELIMINANDO INFORMACION TEMPORAL:1400539600 ]]
[[ E:PROCESANDO VOD:1400539600 ]]
[[ F:1400539600 - 1400539584 ]]